<svg xmlns="http://www.w3.org/2000/svg" viewBox="0 0 200 92" fill="none">
  <!-- Sturgeon Fish Mark — Brown body with tan/gold strokes -->
  <g transform="translate(10, 6) scale(0.85)">
    <!-- Body fill -->
    <path d="M75 8C68 8 60 12 54 18C48 24 44 32 42 38C38 34 32 30 24 28C18 26 12 28 8 32C4 36 2 42 4 48C6 54 12 58 18 60C24 62 30 60 36 56C34 62 34 68 36 74C38 80 44 84 50 84C52 84 54 83 56 82C62 78 66 72 68 64C72 68 78 70 84 70C90 70 96 66 98 60C96 56 92 54 88 54C84 54 80 56 78 60C76 54 72 48 66 44C72 42 78 38 82 32C86 26 86 18 82 12C78 8 75 8 75 8Z" fill="#3B2A1E" opacity="0.85"/>
    <!-- Outline -->
    <path d="M75 8C68 8 60 12 54 18C48 24 44 32 42 38C38 34 32 30 24 28C18 26 12 28 8 32C4 36 2 42 4 48C6 54 12 58 18 60C24 62 30 60 36 56C34 62 34 68 36 74C38 80 44 84 50 84C52 84 54 83 56 82" stroke="#C4A265" stroke-width="3.5" stroke-linecap="round" fill="none"/>
    <path d="M56 82C62 78 66 72 68 64C72 68 78 70 84 70C90 70 96 66 98 60C96 56 92 54 88 54C84 54 80 56 78 60C76 54 72 48 66 44C72 42 78 38 82 32C86 26 86 18 82 12C78 8 75 8 75 8" stroke="#C4A265" stroke-width="3.5" stroke-linecap="round" fill="none"/>
    <!-- Dorsal spines -->
    <path d="M58 18L56 10M62 16L61 8M66 15L66 6M70 14L71 6M74 12L76 5" stroke="#C4A265" stroke-width="2" stroke-linecap="round"/>
    <!-- Eye -->
    <circle cx="78" cy="20" r="2.5" fill="#C4A265"/>
    <!-- Tail fin detail -->
    <path d="M18 44C22 40 28 38 34 40" stroke="#C4A265" stroke-width="2" stroke-linecap="round" fill="none"/>
    <!-- Body curve detail -->
    <path d="M48 38C52 42 58 48 62 52" stroke="#C4A265" stroke-width="1.5" stroke-linecap="round" fill="none" opacity="0.7"/>
  </g>
  <!-- Text: CAVIAR PAVERS -->
  <text x="108" y="42" font-family="'Montserrat', sans-serif" font-weight="700" font-size="22" fill="#C4A265" letter-spacing="3">CAVIAR</text>
  <text x="108" y="62" font-family="'Montserrat', sans-serif" font-weight="400" font-size="10" fill="#D4B896" letter-spacing="5">PAVERS</text>
</svg>